<svg viewBox="0 0 1897.72 464.66"><defs></defs><title>logo</title><g id="Layer_2" data-name="Layer 2"><g id="Layer_1-2" data-name="Layer 1"><path class="cls-1" d="M966.47,257q14.19-11.88,14.19-32.19a39.65,39.65,0,0,0-8.54-25,37.75,37.75,0,0,0-22.61-14,38.68,38.68,0,0,0,20-13.15q7.5-9.45,7.5-23.76,0-19.38-14-30.68t-38.64-11.31H851.46v162h75.45Q952.28,268.83,966.47,257ZM890.91,138.48h25.84q9.69,0,14.89,4.38c3.46,2.93,5.19,7.15,5.19,12.69s-1.73,9.73-5.19,12.58-8.43,4.26-14.89,4.26H890.91Zm0,98.51V201.23h28.61q9.91,0,15.58,4.85t5.65,13.38q0,8.53-5.42,13T920,237Z"/><rect class="cls-1" x="1003.5" y="106.87" width="39.45" height="161.96"/><polygon class="cls-1" points="1214.6 106.87 1169.84 106.87 1141.23 155.78 1108.7 106.87 1062.79 106.87 1115.86 186.47 1063.95 268.83 1108.7 268.83 1137.77 219.23 1170.76 268.83 1216.67 268.83 1163.15 188.54 1214.6 106.87"/><polygon class="cls-1" points="1325.34 172.62 1275.97 172.62 1275.97 138.48 1341.95 138.48 1341.95 106.87 1236.52 106.87 1236.52 268.83 1275.97 268.83 1275.97 203.31 1325.34 203.31 1325.34 172.62"/><polygon class="cls-1" points="1461.92 237.22 1402.16 237.22 1402.16 201.69 1455 201.69 1455 171.24 1402.16 171.24 1402.16 138.48 1461.92 138.48 1461.92 106.87 1362.71 106.87 1362.71 268.83 1461.92 268.83 1461.92 237.22"/><polygon class="cls-1" points="1586.73 237.22 1526.97 237.22 1526.97 201.69 1579.81 201.69 1579.81 171.24 1526.97 171.24 1526.97 138.48 1586.73 138.48 1586.73 106.87 1487.52 106.87 1487.52 268.83 1586.73 268.83 1586.73 237.22"/><path class="cls-1" d="M1717.77,117q-19.15-10.14-44.76-10.15h-60.68v162H1673q25.38,0,44.64-10.15a72.23,72.23,0,0,0,29.77-28.61q10.49-18.45,10.49-42.22,0-24-10.49-42.33A72.66,72.66,0,0,0,1717.77,117Zm-12.46,105.44q-12.45,12.22-34.84,12.22h-18.68V140.56h18.68q22.38,0,34.84,12.45t12.46,34.84Q1717.77,210.23,1705.31,222.46Z"/><path class="cls-1" d="M1890.57,196.85a48.55,48.55,0,0,0-17-14.07,213.68,213.68,0,0,0-25.49-10.16q-15.69-5.07-23.07-9.46t-7.39-12.22q0-7.16,4.39-11t11.53-3.81q8.31,0,13.61,4.5T1853,153h42.68q-1.16-22.83-17.53-35.64T1835,104.56q-26.31,0-42.68,12.81t-16.38,35.41q0,15.22,7.15,24.69a47.14,47.14,0,0,0,17.07,14.3,181.91,181.91,0,0,0,25.61,9.69,162.22,162.22,0,0,1,16.73,5.77,32.75,32.75,0,0,1,9.92,6.46,13.29,13.29,0,0,1,4,9.92q0,7.15-5.07,11.19t-13.84,4q-8.55,0-13.85-4.73t-6.23-13.73h-42q.46,15.92,8.89,27.22a51.9,51.9,0,0,0,22.49,17.08q14.07,5.76,31.84,5.76,18.22,0,31.61-6.69t20.41-18a46.66,46.66,0,0,0,7-25.15Q1897.72,206.08,1890.57,196.85Z"/><polygon class="cls-1" points="885.53 365.64 852.38 315.45 844.13 315.45 844.13 378.68 852.38 378.68 852.38 328.41 885.53 378.68 893.78 378.68 893.78 315.45 885.53 315.45 885.53 365.64"/><polygon class="cls-1" points="907.82 378.68 941.79 378.68 941.79 371.89 916.07 371.89 916.07 350.15 939.08 350.15 939.08 343.35 916.07 343.35 916.07 322.25 941.79 322.25 941.79 315.45 907.82 315.45 907.82 378.68"/><polygon class="cls-1" points="950.4 322.25 967.7 322.25 967.7 378.68 975.95 378.68 975.95 322.25 993.16 322.25 993.16 315.54 950.4 315.54 950.4 322.25"/><polygon class="cls-1" points="1059.92 368.9 1045.43 315.54 1036.19 315.54 1020.97 369.08 1007.2 315.54 998.41 315.54 1016.08 378.77 1025.23 378.68 1040.44 327.86 1055.12 378.68 1064.36 378.68 1082.66 315.54 1073.78 315.54 1059.92 368.9"/><path class="cls-1" d="M1136.47,318.94a33.44,33.44,0,0,0-32.16,0,30.21,30.21,0,0,0-11.46,11.5,34.93,34.93,0,0,0,0,33.25,30.24,30.24,0,0,0,11.46,11.51,33.44,33.44,0,0,0,32.16,0,30,30,0,0,0,11.42-11.46,35.48,35.48,0,0,0,0-33.34A30,30,0,0,0,1136.47,318.94Zm4.12,41.35a21.62,21.62,0,0,1-8.33,8.79,24.59,24.59,0,0,1-23.83,0,21.62,21.62,0,0,1-8.33-8.79,30.37,30.37,0,0,1,0-26.49,21.87,21.87,0,0,1,8.29-8.75,24.76,24.76,0,0,1,23.92,0,21.85,21.85,0,0,1,8.28,8.75,30.37,30.37,0,0,1,0,26.49Z"/><path class="cls-1" d="M1201.47,345.62a19.61,19.61,0,0,0,1.32-21,17,17,0,0,0-7.39-6.61,27,27,0,0,0-12.09-2.45h-20.38v63.14h8.24V352.87h10l15,25.81h9.88l-15.86-26.45Q1197.72,350.6,1201.47,345.62Zm-30.3.63V322.34h12.14q6.8,0,10.1,3.08c2.2,2.05,3.31,4.95,3.31,8.69a11.88,11.88,0,0,1-3.35,8.84q-3.36,3.3-10.06,3.3Z"/><polygon class="cls-1" points="1262.76 315.54 1252.34 315.54 1226.25 344.8 1226.25 315.54 1218.01 315.54 1218.01 378.68 1226.25 378.68 1226.25 349.88 1252.25 378.68 1263.03 378.68 1234.13 347.16 1262.76 315.54"/><path class="cls-1" d="M1335.59,355.49q0,8.43-4.12,12.5t-11.37,4.08q-7.33,0-11.46-4.08t-4.12-12.5V315.54h-8.24V355.4a26.09,26.09,0,0,0,3.12,13.27,19.6,19.6,0,0,0,8.52,8,29.13,29.13,0,0,0,24.19,0,19.91,19.91,0,0,0,8.56-8,25.79,25.79,0,0,0,3.17-13.27V315.54h-8.25Z"/><polygon class="cls-1" points="1399.01 365.64 1365.85 315.45 1357.61 315.45 1357.61 378.68 1365.85 378.68 1365.85 328.41 1399.01 378.68 1407.25 378.68 1407.25 315.45 1399.01 315.45 1399.01 365.64"/><rect class="cls-1" x="1421.29" y="315.54" width="8.24" height="63.14"/><polygon class="cls-1" points="1467.22 369.99 1447.38 315.54 1438.59 315.54 1462.42 378.68 1471.93 378.68 1495.76 315.54 1487.06 315.54 1467.22 369.99"/><polygon class="cls-1" points="1504.82 378.68 1538.79 378.68 1538.79 371.89 1513.06 371.89 1513.06 350.15 1536.07 350.15 1536.07 343.35 1513.06 343.35 1513.06 322.25 1538.79 322.25 1538.79 315.45 1504.82 315.45 1504.82 378.68"/><path class="cls-1" d="M1589.84,345.62a19.58,19.58,0,0,0,1.31-21,17,17,0,0,0-7.38-6.61,27.12,27.12,0,0,0-12.1-2.45h-20.38v63.14h8.24V352.87h10l15,25.81h9.87l-15.85-26.45Q1586.07,350.6,1589.84,345.62Zm-30.31.63V322.34h12.14q6.8,0,10.1,3.08t3.31,8.69a11.88,11.88,0,0,1-3.35,8.84q-3.36,3.3-10.06,3.3Z"/><path class="cls-1" d="M1638.17,346.84a75.35,75.35,0,0,0-10.06-3.4,83.56,83.56,0,0,1-8-2.58,12.62,12.62,0,0,1-4.8-3.3,8.11,8.11,0,0,1-2-5.62,9.14,9.14,0,0,1,3.27-7.48,12.85,12.85,0,0,1,8.42-2.67,13.5,13.5,0,0,1,8.88,2.77,9.77,9.77,0,0,1,3.8,6.38h9.06a16.37,16.37,0,0,0-6.38-11.77q-5.67-4.44-14.54-4.44a26,26,0,0,0-10.92,2.17,17.09,17.09,0,0,0-7.38,6.16,16.19,16.19,0,0,0-2.63,9.15q0,5.9,2.67,9.38a16.22,16.22,0,0,0,6.43,5.12,72.85,72.85,0,0,0,10,3.26,78,78,0,0,1,8.07,2.53,12.82,12.82,0,0,1,5,3.45,8.57,8.57,0,0,1,2,5.88,9.57,9.57,0,0,1-3.39,7.57q-3.4,2.94-9.29,2.94-6.17,0-9.38-3a11.64,11.64,0,0,1-3.67-7.48h-8.78a15.73,15.73,0,0,0,2.9,9.11,18.6,18.6,0,0,0,7.74,6.16,27,27,0,0,0,11.19,2.22,23.91,23.91,0,0,0,11.32-2.54,18,18,0,0,0,7.25-6.61,16.65,16.65,0,0,0,2.45-8.7q0-6-2.72-9.47A16.86,16.86,0,0,0,1638.17,346.84Z"/><polygon class="cls-1" points="1659.55 378.68 1693.52 378.68 1693.52 371.89 1667.79 371.89 1667.79 350.15 1690.8 350.15 1690.8 343.35 1667.79 343.35 1667.79 322.25 1693.52 322.25 1693.52 315.45 1659.55 315.45 1659.55 378.68"/><path class="cls-1" d="M737.74,162.79A45,45,0,0,0,709,175.64h0l-.14.15c-.12.11-.23.23-.35.35l-.45.47a45.3,45.3,0,0,0-6.29,8.29c-2.3,3.58-4.71,7.6-7,11.77q-14.25,5.47-28.7,10.66Q609.34,227.38,550.48,243c-39.74,10.49-79.58,20.7-119.5,30.38s-80,18.8-120.23,26.94-80.68,15.32-121.34,20.45c-5.08.68-10.16,1.21-15.25,1.81s-10.18,1.05-15.27,1.58c-10.18.9-20.37,1.75-30.55,2.24-2.54.12-5.1.3-7.64.36l-7.63.25c-2.55.11-5.08.08-7.62.13s-5.06.08-7.64.05c-10.29-.05-20.56-.22-30.76-.67S46.69,325.37,36.87,324a109.51,109.51,0,0,1-14.14-2.82A40.29,40.29,0,0,1,16.67,319,11.61,11.61,0,0,1,13,316.5a2.15,2.15,0,0,1-.49-.89,2.64,2.64,0,0,1,0-1.33A12.54,12.54,0,0,1,15,309.87a40.91,40.91,0,0,1,4.48-4.74c1.67-1.56,3.48-3.07,5.36-4.55,3.75-3,7.76-5.79,11.86-8.54,2-1.38,4.13-2.74,6.22-4.08l6.33-3.86c1.06-.64,2.09-1.32,3.19-1.91l3.27-1.82c2.19-1.19,4.34-2.45,6.57-3.6,4.48-2.27,8.92-4.61,13.51-6.71,9.1-4.37,18.46-8.34,27.91-12.14s19.06-7.31,28.74-10.67,19.47-6.5,29.37-9.33c-10.1,2.22-20.1,4.79-30.06,7.52s-19.85,5.67-29.64,8.92S82.57,261,73,264.87c-4.82,1.85-9.52,3.95-14.26,6-2.37,1-4.68,2.18-7,3.27l-3.5,1.66c-1.17.54-2.29,1.18-3.44,1.76l-6.86,3.6q-3.36,1.86-6.69,3.79c-4.43,2.58-8.83,5.25-13.13,8.2-2.15,1.48-4.28,3-6.36,4.7a53.2,53.2,0,0,0-6,5.59,22.93,22.93,0,0,0-5,7.85,13,13,0,0,0-.7,5.6,12.9,12.9,0,0,0,2.06,5.68,18.24,18.24,0,0,0,3.74,4,29.22,29.22,0,0,0,4.08,2.75,53.51,53.51,0,0,0,8.12,3.58,122.73,122.73,0,0,0,16,4.26c10.58,2.15,21.09,3.49,31.59,4.63s21,1.94,31.44,2.63c2.61.19,5.28.29,7.93.44s5.31.3,8,.35l8,.24c2.65.09,5.29.07,7.93.11,10.59.14,21.14-.09,31.69-.36,5.26-.22,10.53-.39,15.79-.66s10.52-.51,15.76-.89c42-2.69,83.61-7.47,125-13.18S399.62,318,440.62,310.77s81.81-15.06,122.55-23.15Q625.12,275.25,686,258q16.8-4.86,33.51-10.13c4.52.81,9,1.47,13,1.94a44.27,44.27,0,0,0,10.17.39c.39,0,.78-.05,1.16-.09h0a44.9,44.9,0,0,0,35-23C796.65,194.61,773.5,160.52,737.74,162.79Z"/><path class="cls-1" d="M485.26,321.22c-14.22,2.64-28,5.15-41.46,7.54-26.84,4.75-51.89,8.94-75.65,12.66a116.57,116.57,0,0,0,117.11-20.2Z"/><path class="cls-1" d="M319.56,348.6c-13.36,1.84-26.1,3.5-38.35,5,1.17,1.24,2.35,2.47,3.56,3.67A176.88,176.88,0,0,0,571,304.67l-4.24.87c-13.77,2.73-27.07,5.33-40,7.82a142.2,142.2,0,0,1-200.5,34.3Z"/><path class="cls-1" d="M177.36,232.33a233,233,0,0,0,10.76,70.19l4-.53h0l2.86-.38,2.46-.33c2.42-.32,4.85-.66,7.3-1l.44-.06,7.8-1.13,2.41-.36,5.75-.87,1.49-.22h0c25.77-4,53.32-8.94,84.44-15.22,36.35-7.36,75.46-16.12,119.55-26.8,36.41-8.82,75.37-18.73,119.11-30.28,20.28-5.38,40.48-11.22,60.47-17.44h0l2.55-.81q5.76-1.8,11.49-3.65l4.55-1.47q7.14-2.32,14.24-4.71h0l.3-.1c-.52-3.4-1.11-6.79-1.78-10.15,12.7-12,16.26-33.63,7.79-56.94l-1-2.87c-6.05-16.66-22.3-29.54-36.59-29.54h-8.7A234.9,234.9,0,0,0,574,68.05a232.32,232.32,0,0,0-328.56,0,234.82,234.82,0,0,0-25.09,29.62h-6.79c-14.28,0-30.54,12.88-36.59,29.54l-1,2.87c-8.09,22.3-5.19,43.09,6.19,55.32A234.42,234.42,0,0,0,177.36,232.33Zm380.75-76.67c0,34.46-34.2,62.4-76.39,62.4H339.22c-42.19,0-76.39-27.94-76.39-62.4V149.9c0-35.65,18.94-67.68,49.05-89.76a197.69,197.69,0,0,1,202.6,4.17c26.94,21.85,43.63,52.13,43.63,85.59Z"/><path class="cls-1" d="M409.69,430.41a197.78,197.78,0,0,1-154.18-73.89c-13.77,1.48-27,2.72-39.81,3.76a234.85,234.85,0,0,0,29.71,36.33A232.46,232.46,0,0,0,634.73,290.4q-19.25,4.71-38.65,9C568.54,375.7,495.39,430.41,409.69,430.41Z"/></g></g></svg>